<?xml version="1.0" encoding="UTF-8" standalone="no"?><svg xmlns="http://www.w3.org/2000/svg" xmlns:xlink="http://www.w3.org/1999/xlink" fill="#bc727f" height="27" preserveAspectRatio="xMidYMid meet" version="1" viewBox="0.0 0.0 26.0 27.0" width="26" zoomAndPan="magnify"><g id="change1_1"><path d="M13,27c7.29,0,13-2.855,13-6.5c0-2.9-3.619-5.294-8.768-6.154C18.706,11.974,20,9.236,20,6.923C20,3.1,16.866,0,13,0 C9.134,0,6,3.1,6,6.923c0,2.313,1.294,5.051,2.768,7.423C3.619,15.206,0,17.6,0,20.5C0,24.145,5.71,27,13,27z M7,6.923 C7,3.657,9.691,1,13,1c3.309,0,6,2.657,6,5.923c0,3.937-4.25,9.443-6,11.544C11.25,16.366,7,10.86,7,6.923z M14.568,18.121 C16.602,18.417,18,19.24,18,20c0,0.944-2.139,2-5,2c-2.861,0-5-1.056-5-2c0-0.76,1.398-1.583,3.432-1.879 C12.342,19.275,13,20,13,20S13.658,19.275,14.568,18.121z M9.363,15.271c0.465,0.698,0.93,1.353,1.368,1.937 C8.502,17.638,7,18.696,7,20c0,1.71,2.579,3,6,3c3.421,0,6-1.29,6-3c0-1.304-1.502-2.362-3.731-2.792 c0.438-0.584,0.903-1.239,1.368-1.937C21.428,15.997,25,18.097,25,20.5c0,2.981-5.495,5.5-12,5.5c-6.505,0-12-2.519-12-5.5 C1,18.097,4.572,15.997,9.363,15.271z" fill="inherit"/><path d="M13,10c1.657,0,3-1.343,3-3C16,5.343,14.657,4,13,4c-1.657,0-3,1.343-3,2.999C10,8.656,11.343,10,13,10z" fill="inherit"/></g></svg>